<svg xmlns="http://www.w3.org/2000/svg" xmlns:xlink="http://www.w3.org/1999/xlink" viewBox="0 0 301.89 134"><defs><linearGradient id="aaab7af9-a2d1-4778-bdc0-4e7633aa1a48" x1="29" y1="83.5" x2="255" y2="83.5" gradientUnits="userSpaceOnUse"><stop offset="0" stop-color="#d7baff"/><stop offset="0.24" stop-color="#983fd4"/><stop offset="0.38" stop-color="#7700bd"/><stop offset="0.45" stop-color="#6d00ae"/><stop offset="0.6" stop-color="#540085"/><stop offset="0.8" stop-color="#2b0045"/><stop offset="1"/></linearGradient><linearGradient id="e42e935d-d117-4407-baf1-7a4e5b07f34b" y1="90.5" x2="255" y2="90.5" gradientUnits="userSpaceOnUse"><stop offset="0" stop-color="#d7baff"/><stop offset="0.24" stop-color="#913fcf"/><stop offset="0.38" stop-color="#6c00b6"/><stop offset="0.46" stop-color="#6300a7"/><stop offset="0.61" stop-color="#4b007e"/><stop offset="0.82" stop-color="#25003e"/><stop offset="1"/></linearGradient></defs><g id="a3abb147-7191-465d-8960-d0ab50ae60ef" data-name="Layer 2"><g id="e33dcfbd-0caa-45e2-8ee9-6fe5e062f0c5" data-name="Layer 1"><path d="M110.74,30h-49L67.81,0H195.62L189.5,30H148.66L127.79,134H89.86Z"/><path d="M264.76,93.8,287.54,134H248.17L228,98H208.69l-7.16,36H163.88L190.68,0h57.23c34.27,0,54,15.89,54,42.69C301.89,67.38,288.11,85.76,264.76,93.8ZM242.53,30H222.74l-8,39H237.2c16.55,0,26.25-8,26.25-22.64C263.45,35.14,255.46,30,242.53,30Z"/><polygon points="29 98 255 98 255 69 34.19 69 29 98" style="fill:url(#aaab7af9-a2d1-4778-bdc0-4e7633aa1a48)"/><polygon points="0 98 255 98 255 83 2.35 83 0 98" style="fill:url(#e42e935d-d117-4407-baf1-7a4e5b07f34b)"/></g></g></svg>