<svg xmlns="http://www.w3.org/2000/svg" viewBox="0 0 177.34 51.12"><defs><style>.cls-1{fill:#ff2d20;fill-rule:evenodd;}</style></defs><g id="Layer_2" data-name="Layer 2"><g id="Layer_1-2" data-name="Layer 1"><path class="cls-1" d="M68.76,11.82v23H77.1v4H64.32v-27Zm24,11.46V20.85H97v18H92.77V36.41a5.87,5.87,0,0,1-2.41,2.12,7.16,7.16,0,0,1-3.15.77,9.2,9.2,0,0,1-3.75-.75,8.8,8.8,0,0,1-2.91-2.07A9.71,9.71,0,0,1,78,29.84a9.81,9.81,0,0,1,.68-3.61,9.37,9.37,0,0,1,1.89-3,8.77,8.77,0,0,1,2.91-2.06,9.2,9.2,0,0,1,3.75-.75,7,7,0,0,1,3.15.77,5.8,5.8,0,0,1,2.41,2.12ZM92.38,32a6.34,6.34,0,0,0,.39-2.2,6.25,6.25,0,0,0-.39-2.2,5.55,5.55,0,0,0-1.08-1.81,5.28,5.28,0,0,0-1.68-1.24,5,5,0,0,0-2.18-.46,4.89,4.89,0,0,0-2.16.46,5.2,5.2,0,0,0-1.66,1.24,5.33,5.33,0,0,0-1.06,1.81,6.6,6.6,0,0,0-.37,2.2,6.43,6.43,0,0,0,.37,2.2,5.32,5.32,0,0,0,1.06,1.82,5.44,5.44,0,0,0,1.66,1.23,4.89,4.89,0,0,0,2.16.47,5,5,0,0,0,2.18-.47,5.11,5.11,0,0,0,1.68-1.23A5.6,5.6,0,0,0,92.38,32Zm7.92,6.8v-18h11.42V25H104.5V38.84ZM127,23.28V20.85h4.21v18H127V36.41a5.87,5.87,0,0,1-2.41,2.12,7.1,7.1,0,0,1-3.15.77,9.15,9.15,0,0,1-3.74-.75,8.74,8.74,0,0,1-2.92-2.07,9.63,9.63,0,0,1-1.89-3,9.87,9.87,0,0,1,1.89-10.27,8.71,8.71,0,0,1,2.92-2.06,9.15,9.15,0,0,1,3.74-.75,7,7,0,0,1,3.15.77A5.8,5.8,0,0,1,127,23.28ZM126.58,32a6.34,6.34,0,0,0,.39-2.2,6.25,6.25,0,0,0-.39-2.2,5.38,5.38,0,0,0-1.08-1.81,5.28,5.28,0,0,0-1.68-1.24,5,5,0,0,0-2.18-.46,4.89,4.89,0,0,0-2.16.46,5.25,5.25,0,0,0-2.72,3.05,6.6,6.6,0,0,0-.37,2.2,6.43,6.43,0,0,0,.37,2.2,5.32,5.32,0,0,0,1.06,1.82,5.44,5.44,0,0,0,1.66,1.23,4.89,4.89,0,0,0,2.16.47,5,5,0,0,0,2.18-.47,5.11,5.11,0,0,0,1.68-1.23A5.43,5.43,0,0,0,126.58,32Zm21.47-11.19h4.26l-6.91,18h-5.29l-6.9-18h4.26l5.29,13.77Zm13.44-.46c5.73,0,9.63,5.07,8.9,11h-14A5.06,5.06,0,0,0,161.72,36c3.2,0,5.34-2.82,5.34-2.82l2.85,2.2c-2.54,2.71-4.63,4-7.88,4-5.83,0-9.78-3.68-9.78-9.46a9.31,9.31,0,0,1,9.24-9.45Zm-5.05,7.89h10.09a5,5,0,0,0-5.08-4.55A4.89,4.89,0,0,0,156.44,28.28Zm16.69,10.56v-27h4.21v27Z"/><path class="cls-1" d="M49.63,11.56a1.49,1.49,0,0,1,0,.21v11a.8.8,0,0,1-.4.7L40,28.74V39.25a.78.78,0,0,1-.4.69L20.42,51l-.14.06-.05,0a.72.72,0,0,1-.41,0l-.07,0L19.62,51,.4,39.94a.78.78,0,0,1-.4-.69V6.33a.76.76,0,0,1,0-.21s0,0,0-.06a.5.5,0,0,1,.05-.13l.05-.07.07-.09.08-.06L.4,5.64h0L10,.11a.77.77,0,0,1,.8,0l9.61,5.53h0l.09.07.08.06.07.09.06.07s0,.08.05.13,0,0,0,.06a1.49,1.49,0,0,1,0,.21V26.89l8-4.61V11.77a.76.76,0,0,1,0-.21l0-.06a.5.5,0,0,1,.05-.13l0-.07.08-.09s.05,0,.07-.06l.09-.07h0l9.61-5.53a.77.77,0,0,1,.8,0l9.61,5.53a.31.31,0,0,1,.09.07.24.24,0,0,1,.08.06l.07.09.06.07s0,.08.05.13ZM48.05,22.28V13.16l-3.36,1.93L40,17.77v9.12l8-4.61ZM38.44,38.79V29.66l-4.57,2.61-13,7.44v9.22ZM1.6,7.72V38.79L19.22,48.93V39.72L10,34.51h0l-.09-.06-.07-.06h0l-.06-.09s0,0-.06-.08h0a.42.42,0,0,1,0-.1.36.36,0,0,1,0-.09h0s0-.08,0-.12,0-.06,0-.09h0V12.33L5,9.65,1.6,7.72Zm8.81-6-8,4.61,8,4.61,8-4.61-8-4.61Zm4.17,28.77,4.64-2.68V7.72L15.86,9.65l-4.65,2.68v20.1ZM39.24,7.16l-8,4.61,8,4.61,8-4.61Zm-.8,10.61L33.8,15.09l-3.37-1.93v9.12L35.08,25l3.36,1.93ZM20,38.33l11.74-6.7,5.87-3.35-8-4.61L20.42,29,12,33.81Z"/></g></g></svg>