<svg xmlns="http://www.w3.org/2000/svg" viewBox="0 0 260.93 76.42"><defs><style>.cls-1,.cls-2{fill:#61dafb;}.cls-2{stroke:#61dafb;stroke-miterlimit:10;stroke-width:2px;}</style></defs><g id="Layer_2" data-name="Layer 2"><g id="Layer_1-2" data-name="Layer 1"><circle class="cls-1" cx="42.86" cy="38.23" r="7.64"/><path class="cls-1" d="M42.86,55.74C18.83,55.74,0,48.05,0,38.23S18.83,20.71,42.86,20.71,85.73,28.4,85.73,38.23,66.9,55.74,42.86,55.74Zm0-31.31c-23.06,0-39.13,7.27-39.13,13.8S19.8,52,42.86,52,82,44.75,82,38.23,65.93,24.43,42.86,24.43Z"/><path class="cls-1" d="M60.09,76.42c-8.94,0-22.15-11.68-32.4-29.44-5.58-9.67-9.4-19.63-10.75-28C15.5,10,17.09,3.61,21.43,1.1s10.62-.71,17.7,5C45.73,11.5,52.45,19.79,58,29.47h0c12,20.81,14.76,41,6.26,45.88A8.32,8.32,0,0,1,60.09,76.42ZM25.8,3.72a4.93,4.93,0,0,0-2.5.61c-2.87,1.65-3.84,6.77-2.68,14,1.28,8,4.94,17.47,10.3,26.76,11.53,20,25.87,30.27,31.51,27s3.91-20.82-7.62-40.79h0C49.44,22,43,14.12,36.78,9,32.5,5.55,28.66,3.72,25.8,3.72Z"/><path class="cls-1" d="M25.64,76.42a8.32,8.32,0,0,1-4.21-1.07c-8.51-4.92-5.76-25.07,6.26-45.88C33.28,19.79,40,11.5,46.6,6.14,53.67.39,60-1.4,64.3,1.1,72.8,6,70.05,26.17,58,47h0C47.78,64.74,34.58,76.42,25.64,76.42ZM59.92,3.72c-2.85,0-6.69,1.83-11,5.31-6.26,5.09-12.66,13-18,22.3-11.53,20-13.27,37.53-7.62,40.79s20-7,31.51-27h0c11.53-20,13.27-37.53,7.62-40.79A5,5,0,0,0,59.92,3.72Z"/><path class="cls-2" d="M108,12.75a61.93,61.93,0,0,1,11.45-1c6.38,0,10.5,1.17,13.38,3.77a11.52,11.52,0,0,1,3.63,8.78c0,6.1-3.84,10.15-8.71,11.8v.2c3.57,1.24,5.69,4.53,6.79,9.33,1.51,6.44,2.61,10.9,3.57,12.68H132c-.75-1.3-1.78-5.28-3.08-11-1.37-6.37-3.84-8.77-9.26-9H114v20h-6Zm6,21h6.1c6.38,0,10.42-3.49,10.42-8.77,0-6-4.32-8.57-10.62-8.64a24.25,24.25,0,0,0-5.9.55Z"/><path class="cls-2" d="M148.36,42.86c.13,8.16,5.34,11.52,11.38,11.52a21.84,21.84,0,0,0,9.19-1.72L170,57a26.89,26.89,0,0,1-11,2.06c-10.22,0-16.32-6.72-16.32-16.73s5.89-17.9,15.56-17.9c10.84,0,13.72,9.53,13.72,15.63a22.42,22.42,0,0,1-.21,2.82Zm17.69-4.32c.07-3.84-1.58-9.81-8.37-9.81-6.1,0-8.78,5.62-9.26,9.81Z"/><path class="cls-2" d="M197.73,58.35l-.48-4.18H197a12.33,12.33,0,0,1-10.14,4.94c-6.72,0-10.15-4.73-10.15-9.53,0-8,7.13-12.42,19.95-12.35v-.68c0-2.75-.75-7.68-7.54-7.68a16.51,16.51,0,0,0-8.64,2.47l-1.37-4a20.61,20.61,0,0,1,10.9-2.95c10.15,0,12.62,6.93,12.62,13.58V50.4a45.79,45.79,0,0,0,.55,8Zm-.89-16.93c-6.58-.14-14.06,1-14.06,7.47a5.34,5.34,0,0,0,5.69,5.76,8.27,8.27,0,0,0,8-5.55,6.53,6.53,0,0,0,.34-1.92Z"/><path class="cls-2" d="M236.06,57.12A22.22,22.22,0,0,1,226.53,59C216.52,59,210,52.25,210,42.1s7-17.62,17.83-17.62a20.2,20.2,0,0,1,8.36,1.71l-1.37,4.67a13.9,13.9,0,0,0-7-1.58c-7.62,0-11.73,5.62-11.73,12.55,0,7.68,4.94,12.41,11.52,12.41A17.09,17.09,0,0,0,235,52.59Z"/><path class="cls-2" d="M251.29,15.63v9.53h8.64v4.6h-8.64v17.9c0,4.11,1.16,6.44,4.52,6.44a13.23,13.23,0,0,0,3.5-.41l.28,4.53a14.81,14.81,0,0,1-5.35.82,8.36,8.36,0,0,1-6.52-2.54c-1.71-1.78-2.33-4.73-2.33-8.64V29.76h-5.14v-4.6h5.14V17.21Z"/></g></g></svg>