<svg xmlns="http://www.w3.org/2000/svg" xmlns:xlink="http://www.w3.org/1999/xlink" width="570.867" height="527.765" viewBox="0 0 570.867 527.765"><defs><linearGradient id="a" x1="0.5" x2="0.5" y2="1" gradientUnits="objectBoundingBox"><stop offset="0" stop-color="#5c24ae"/><stop offset="1" stop-color="#30135a"/></linearGradient><linearGradient id="b" x1="0.5" y1="-0.173" x2="0.5" y2="1" gradientUnits="objectBoundingBox"><stop offset="0" stop-color="#7331d4"/><stop offset="1" stop-color="#461b84"/></linearGradient><linearGradient id="c" x1="0.5" x2="0.5" y2="1" gradientUnits="objectBoundingBox"><stop offset="0" stop-color="#905bdd"/><stop offset="1" stop-color="#2193a0"/></linearGradient></defs><g transform="translate(-75.761 -23.491)"><g transform="translate(75.761 167.615)"><path d="M233.458,235.111,22.514,376.872c-29,19.492-29,51.388,0,70.88L233.458,589.514c29,19.492,76.467,19.492,105.472,0L549.874,447.753c29-19.492,29-51.388,0-70.88L338.93,235.111c-29-19.492-76.467-19.492-105.472,0Z" transform="translate(-0.761 -220.492)"/><path d="M233.458,235.111,22.514,376.872c-29,19.492-29,51.388,0,70.88L233.458,589.514c29,19.492,76.467,19.492,105.472,0L549.874,447.753c29-19.492,29-51.388,0-70.88L338.93,235.111c-29-19.492-76.467-19.492-105.472,0Z" transform="translate(-0.761 -220.492)" fill="url(#a)"/></g><g transform="translate(75.761 95.553)"><path d="M233.458,125.111,22.514,266.872c-29,19.492-29,51.388,0,70.88L233.458,479.514c29,19.492,76.467,19.492,105.472,0L549.874,337.753c29-19.492,29-51.388,0-70.88L338.93,125.111c-29-19.492-76.467-19.492-105.472,0Z" transform="translate(-0.761 -110.492)"/><path d="M233.458,125.111,22.514,266.872c-29,19.492-29,51.388,0,70.88L233.458,479.514c29,19.492,76.467,19.492,105.472,0L549.874,337.753c29-19.492,29-51.388,0-70.88L338.93,125.111c-29-19.492-76.467-19.492-105.472,0Z" transform="translate(-0.761 -110.492)" fill="url(#b)"/></g><g transform="translate(75.761 23.491)"><path d="M233.458,15.111,22.514,156.872c-29,19.492-29,51.388,0,70.88L233.458,369.514c29,19.492,76.467,19.492,105.472,0L549.874,227.753c29-19.492,29-51.388,0-70.88L338.93,15.111c-29-19.492-76.467-19.492-105.472,0Z" transform="translate(-0.761 -0.491)"/><path d="M233.458,15.111,22.514,156.872c-29,19.492-29,51.388,0,70.88L233.458,369.514c29,19.492,76.467,19.492,105.472,0L549.874,227.753c29-19.492,29-51.388,0-70.88L338.93,15.111c-29-19.492-76.467-19.492-105.472,0Z" transform="translate(-0.761 -0.491)" fill="url(#c)"/></g><g transform="translate(204.808 110.216)"><path d="M128.253,8.5,12.679,86.171c-15.891,10.679-15.891,28.155,0,38.835l115.574,77.67c15.891,10.679,41.9,10.679,57.787,0l115.574-77.67c15.891-10.679,15.891-28.155,0-38.835L186.04,8.5c-15.891-10.679-41.9-10.679-57.787,0Z" transform="translate(-0.761 -0.491)" fill="#262626"/><path d="M128.253,8.5,12.679,86.171c-15.891,10.679-15.891,28.155,0,38.835l115.574,77.67c15.891,10.679,41.9,10.679,57.787,0l115.574-77.67c15.891-10.679,15.891-28.155,0-38.835L186.04,8.5c-15.891-10.679-41.9-10.679-57.787,0Z" transform="translate(-0.761 -0.491)" fill="#262626"/></g></g></svg>